<svg width="512" height="512" viewBox="0 0 512 512" fill="none" xmlns="http://www.w3.org/2000/svg">
<rect width="512" height="512" rx="256" fill="#FEBE10"/>
<path d="M246.28 353H203.016L204.808 347.368L260.616 305.64L246.28 353ZM207.368 337.896L214.28 314.856H153.608L92.168 399.592H41.224L269.32 89.576H323.848L263.432 296.168L233.224 250.088L253.704 179.176L179.208 281.064H224.008L230.92 258.28L258.568 300.008L207.368 337.896ZM381.558 206.056C386.507 206.056 390.859 206.739 394.614 208.104C398.539 209.469 401.611 211.688 403.83 214.76C406.219 217.661 407.585 221.416 407.926 226.024C408.438 230.632 407.755 236.179 405.878 242.664L379.766 331.496C378.401 336.104 376.438 339.859 373.878 342.76C371.489 345.491 368.758 347.624 365.686 349.16C362.785 350.696 359.627 351.72 356.214 352.232C352.971 352.744 349.729 353 346.486 353H296.054C288.715 353 282.998 350.355 278.902 345.064C274.977 339.773 274.294 332.861 276.854 324.328L289.654 280.296H330.358L320.63 312.552C319.947 314.771 320.118 316.221 321.142 316.904C322.166 317.416 323.446 317.672 324.982 317.672H334.71C337.099 317.672 338.891 317.331 340.086 316.648C341.281 315.795 342.219 314.173 342.902 311.784L363.638 241.64C363.979 240.616 363.979 239.763 363.638 239.08C363.467 238.397 362.529 238.056 360.822 238.056H302.198L311.67 206.056H381.558ZM313.462 199.912L339.574 111.592C340.939 106.984 342.731 103.229 344.95 100.328C347.169 97.4267 349.643 95.208 352.374 93.672C355.275 91.9653 358.347 90.856 361.59 90.344C364.833 89.832 368.075 89.576 371.318 89.576H450.934L429.686 162.28L386.422 172.008L400.758 123.624H384.63C382.241 123.624 380.449 124.051 379.254 124.904C378.23 125.587 377.377 127.123 376.694 129.512L356.214 199.912H313.462Z" fill="#141A46"/>
</svg>
